<mxfile host="Electron" agent="Mozilla/5.0 (Windows NT 10.0; Win64; x64) AppleWebKit/537.36 (KHTML, like Gecko) draw.io/28.2.7 Chrome/138.0.7204.251 Electron/37.7.1 Safari/537.36" version="28.2.7">
  <diagram name="Page-1" id="_xtpJyv841CFfwgK3u80">
    <mxGraphModel dx="2358" dy="2062" grid="1" gridSize="10" guides="1" tooltips="1" connect="1" arrows="1" fold="1" page="1" pageScale="1" pageWidth="850" pageHeight="1100" math="0" shadow="0">
      <root>
        <mxCell id="0" />
        <mxCell id="1" parent="0" />
        <mxCell id="YgZaEbE8Ezpt_k7WW5st-41" value="VPC" style="points=[[0,0],[0.25,0],[0.5,0],[0.75,0],[1,0],[1,0.25],[1,0.5],[1,0.75],[1,1],[0.75,1],[0.5,1],[0.25,1],[0,1],[0,0.75],[0,0.5],[0,0.25]];outlineConnect=0;gradientColor=none;html=1;whiteSpace=wrap;fontSize=12;fontStyle=0;container=1;pointerEvents=0;collapsible=0;recursiveResize=0;shape=mxgraph.aws4.group;grIcon=mxgraph.aws4.group_vpc2;strokeColor=#8C4FFF;fillColor=none;verticalAlign=top;align=left;spacingLeft=30;fontColor=#AAB7B8;dashed=0;" vertex="1" parent="1">
          <mxGeometry x="100" y="80" width="780" height="910" as="geometry" />
        </mxCell>
        <mxCell id="YgZaEbE8Ezpt_k7WW5st-86" value="" style="rounded=1;whiteSpace=wrap;html=1;" vertex="1" parent="YgZaEbE8Ezpt_k7WW5st-41">
          <mxGeometry x="60" y="760" width="640" height="60" as="geometry" />
        </mxCell>
        <mxCell id="YgZaEbE8Ezpt_k7WW5st-89" value="" style="endArrow=none;html=1;rounded=0;" edge="1" parent="YgZaEbE8Ezpt_k7WW5st-41">
          <mxGeometry width="50" height="50" relative="1" as="geometry">
            <mxPoint x="379.22" y="830" as="sourcePoint" />
            <mxPoint x="379.1700000000001" y="750" as="targetPoint" />
          </mxGeometry>
        </mxCell>
        <mxCell id="YgZaEbE8Ezpt_k7WW5st-90" value="Availability Zone A" style="text;html=1;whiteSpace=wrap;strokeColor=none;fillColor=none;align=center;verticalAlign=middle;rounded=0;" vertex="1" parent="YgZaEbE8Ezpt_k7WW5st-41">
          <mxGeometry x="100" y="760" width="270" height="60" as="geometry" />
        </mxCell>
        <mxCell id="YgZaEbE8Ezpt_k7WW5st-91" value="Availability Zone B" style="text;html=1;whiteSpace=wrap;strokeColor=none;fillColor=none;align=center;verticalAlign=middle;rounded=0;" vertex="1" parent="YgZaEbE8Ezpt_k7WW5st-41">
          <mxGeometry x="400" y="760" width="270" height="60" as="geometry" />
        </mxCell>
        <mxCell id="YgZaEbE8Ezpt_k7WW5st-64" value="" style="endArrow=none;html=1;rounded=0;" edge="1" parent="1">
          <mxGeometry width="50" height="50" relative="1" as="geometry">
            <mxPoint x="477" y="350" as="sourcePoint" />
            <mxPoint x="477" y="290" as="targetPoint" />
            <Array as="points">
              <mxPoint x="477" y="320" />
            </Array>
          </mxGeometry>
        </mxCell>
        <mxCell id="YgZaEbE8Ezpt_k7WW5st-65" value="" style="endArrow=none;html=1;rounded=0;" edge="1" parent="1">
          <mxGeometry width="50" height="50" relative="1" as="geometry">
            <mxPoint x="360" y="350" as="sourcePoint" />
            <mxPoint x="480" y="350" as="targetPoint" />
            <Array as="points">
              <mxPoint x="420" y="350" />
              <mxPoint x="450" y="350" />
              <mxPoint x="460" y="350" />
            </Array>
          </mxGeometry>
        </mxCell>
        <mxCell id="YgZaEbE8Ezpt_k7WW5st-66" value="" style="endArrow=classic;html=1;rounded=0;" edge="1" parent="1">
          <mxGeometry width="50" height="50" relative="1" as="geometry">
            <mxPoint x="360" y="350" as="sourcePoint" />
            <mxPoint x="360" y="420" as="targetPoint" />
          </mxGeometry>
        </mxCell>
        <mxCell id="YgZaEbE8Ezpt_k7WW5st-67" value="" style="endArrow=none;html=1;rounded=0;" edge="1" parent="1">
          <mxGeometry width="50" height="50" relative="1" as="geometry">
            <mxPoint x="480" y="350" as="sourcePoint" />
            <mxPoint x="600" y="350" as="targetPoint" />
            <Array as="points" />
          </mxGeometry>
        </mxCell>
        <mxCell id="YgZaEbE8Ezpt_k7WW5st-68" value="" style="endArrow=classic;html=1;rounded=0;" edge="1" parent="1">
          <mxGeometry width="50" height="50" relative="1" as="geometry">
            <mxPoint x="600" y="350" as="sourcePoint" />
            <mxPoint x="600" y="420" as="targetPoint" />
          </mxGeometry>
        </mxCell>
        <mxCell id="YgZaEbE8Ezpt_k7WW5st-69" value="" style="rounded=1;whiteSpace=wrap;html=1;" vertex="1" parent="1">
          <mxGeometry x="270" y="420" width="180" height="230" as="geometry" />
        </mxCell>
        <mxCell id="YgZaEbE8Ezpt_k7WW5st-70" value="" style="rounded=1;whiteSpace=wrap;html=1;" vertex="1" parent="1">
          <mxGeometry x="515" y="420" width="180" height="230" as="geometry" />
        </mxCell>
        <mxCell id="YgZaEbE8Ezpt_k7WW5st-71" value="Internet Gat Way" style="text;html=1;whiteSpace=wrap;strokeColor=none;fillColor=none;align=center;verticalAlign=middle;rounded=0;" vertex="1" parent="1">
          <mxGeometry x="300" y="430" width="120" height="30" as="geometry" />
        </mxCell>
        <mxCell id="YgZaEbE8Ezpt_k7WW5st-72" value="Public Subnet B" style="text;html=1;whiteSpace=wrap;strokeColor=none;fillColor=none;align=center;verticalAlign=middle;rounded=0;" vertex="1" parent="1">
          <mxGeometry x="550" y="430" width="120" height="30" as="geometry" />
        </mxCell>
        <mxCell id="YgZaEbE8Ezpt_k7WW5st-73" value="" style="endArrow=none;html=1;rounded=0;" edge="1" parent="1" source="YgZaEbE8Ezpt_k7WW5st-83">
          <mxGeometry width="50" height="50" relative="1" as="geometry">
            <mxPoint x="359.40999999999997" y="600" as="sourcePoint" />
            <mxPoint x="359.40999999999997" y="560" as="targetPoint" />
            <Array as="points" />
          </mxGeometry>
        </mxCell>
        <mxCell id="YgZaEbE8Ezpt_k7WW5st-74" value="" style="endArrow=none;html=1;rounded=0;" edge="1" parent="1">
          <mxGeometry width="50" height="50" relative="1" as="geometry">
            <mxPoint x="604.41" y="600" as="sourcePoint" />
            <mxPoint x="604.41" y="560" as="targetPoint" />
            <Array as="points">
              <mxPoint x="604.41" y="580" />
            </Array>
          </mxGeometry>
        </mxCell>
        <mxCell id="YgZaEbE8Ezpt_k7WW5st-75" value="Private Subnet A" style="text;html=1;whiteSpace=wrap;strokeColor=none;fillColor=none;align=center;verticalAlign=middle;rounded=0;" vertex="1" parent="1">
          <mxGeometry x="330" y="600" width="60" height="30" as="geometry" />
        </mxCell>
        <mxCell id="YgZaEbE8Ezpt_k7WW5st-76" value="Private Subnet B" style="text;html=1;whiteSpace=wrap;strokeColor=none;fillColor=none;align=center;verticalAlign=middle;rounded=0;" vertex="1" parent="1">
          <mxGeometry x="575" y="600" width="60" height="30" as="geometry" />
        </mxCell>
        <mxCell id="YgZaEbE8Ezpt_k7WW5st-77" value="" style="curved=1;endArrow=classic;html=1;rounded=0;" edge="1" parent="1">
          <mxGeometry width="50" height="50" relative="1" as="geometry">
            <mxPoint x="350" y="650" as="sourcePoint" />
            <mxPoint x="440" y="760" as="targetPoint" />
            <Array as="points">
              <mxPoint x="400" y="730" />
              <mxPoint x="350" y="680" />
            </Array>
          </mxGeometry>
        </mxCell>
        <mxCell id="YgZaEbE8Ezpt_k7WW5st-78" value="" style="curved=1;endArrow=classic;html=1;rounded=0;" edge="1" parent="1">
          <mxGeometry width="50" height="50" relative="1" as="geometry">
            <mxPoint x="605" y="650" as="sourcePoint" />
            <mxPoint x="510" y="760" as="targetPoint" />
            <Array as="points">
              <mxPoint x="655" y="730" />
              <mxPoint x="605" y="680" />
            </Array>
          </mxGeometry>
        </mxCell>
        <mxCell id="YgZaEbE8Ezpt_k7WW5st-79" value="Bucket" style="sketch=0;outlineConnect=0;fontColor=#232F3E;gradientColor=none;strokeColor=#232F3E;fillColor=#ffffff;dashed=0;verticalLabelPosition=bottom;verticalAlign=top;align=center;html=1;fontSize=12;fontStyle=0;aspect=fixed;shape=mxgraph.aws4.resourceIcon;resIcon=mxgraph.aws4.bucket;" vertex="1" parent="1">
          <mxGeometry x="440" y="730" width="70" height="70" as="geometry" />
        </mxCell>
        <mxCell id="YgZaEbE8Ezpt_k7WW5st-80" value="Application Load Balancer" style="sketch=0;outlineConnect=0;fontColor=#232F3E;gradientColor=none;strokeColor=#ffffff;fillColor=#232F3E;dashed=0;verticalLabelPosition=middle;verticalAlign=bottom;align=center;html=1;whiteSpace=wrap;fontSize=10;fontStyle=1;spacing=3;shape=mxgraph.aws4.productIcon;prIcon=mxgraph.aws4.application_load_balancer;" vertex="1" parent="1">
          <mxGeometry x="440" y="180" width="80" height="110" as="geometry" />
        </mxCell>
        <mxCell id="YgZaEbE8Ezpt_k7WW5st-81" value="" style="verticalLabelPosition=bottom;html=1;verticalAlign=top;strokeWidth=1;align=center;outlineConnect=0;dashed=0;outlineConnect=0;shape=mxgraph.aws3d.application_server;fillColor=#ECECEC;strokeColor=#5E5E5E;aspect=fixed;strokeColor2=#292929;" vertex="1" parent="1">
          <mxGeometry x="331.48" y="472.5" width="57.04" height="57.5" as="geometry" />
        </mxCell>
        <mxCell id="YgZaEbE8Ezpt_k7WW5st-82" value="" style="endArrow=none;html=1;rounded=0;" edge="1" parent="1" target="YgZaEbE8Ezpt_k7WW5st-83">
          <mxGeometry width="50" height="50" relative="1" as="geometry">
            <mxPoint x="359.40999999999997" y="600" as="sourcePoint" />
            <mxPoint x="359.40999999999997" y="560" as="targetPoint" />
            <Array as="points">
              <mxPoint x="359.40999999999997" y="580" />
            </Array>
          </mxGeometry>
        </mxCell>
        <mxCell id="YgZaEbE8Ezpt_k7WW5st-83" value="Ec2&lt;br&gt;Instance" style="text;html=1;whiteSpace=wrap;strokeColor=none;fillColor=none;align=center;verticalAlign=middle;rounded=0;" vertex="1" parent="1">
          <mxGeometry x="328.52" y="530" width="61.48" height="40" as="geometry" />
        </mxCell>
        <mxCell id="YgZaEbE8Ezpt_k7WW5st-84" value="" style="verticalLabelPosition=bottom;html=1;verticalAlign=top;strokeWidth=1;align=center;outlineConnect=0;dashed=0;outlineConnect=0;shape=mxgraph.aws3d.application_server;fillColor=#ECECEC;strokeColor=#5E5E5E;aspect=fixed;strokeColor2=#292929;" vertex="1" parent="1">
          <mxGeometry x="575" y="472.5" width="57.04" height="57.5" as="geometry" />
        </mxCell>
        <mxCell id="YgZaEbE8Ezpt_k7WW5st-85" value="Ec2&lt;br&gt;Instance" style="text;html=1;whiteSpace=wrap;strokeColor=none;fillColor=none;align=center;verticalAlign=middle;rounded=0;" vertex="1" parent="1">
          <mxGeometry x="573.52" y="540" width="66.48" height="12.5" as="geometry" />
        </mxCell>
        <mxCell id="YgZaEbE8Ezpt_k7WW5st-93" value="" style="outlineConnect=0;dashed=0;verticalLabelPosition=bottom;verticalAlign=top;align=center;html=1;shape=mxgraph.aws3.internet_3;fillColor=#D2D3D3;gradientColor=none;strokeColor=#A9C4EB;" vertex="1" parent="1">
          <mxGeometry x="407.5" y="-50" width="165" height="84" as="geometry" />
        </mxCell>
        <mxCell id="YgZaEbE8Ezpt_k7WW5st-94" value="" style="endArrow=classic;html=1;rounded=0;" edge="1" parent="1">
          <mxGeometry width="50" height="50" relative="1" as="geometry">
            <mxPoint x="489.16999999999996" y="34" as="sourcePoint" />
            <mxPoint x="489.16999999999996" y="94" as="targetPoint" />
          </mxGeometry>
        </mxCell>
        <mxCell id="YgZaEbE8Ezpt_k7WW5st-95" value="" style="outlineConnect=0;dashed=0;verticalLabelPosition=bottom;verticalAlign=top;align=center;html=1;shape=mxgraph.aws3.virtual_private_cloud;fillColor=#F58534;gradientColor=none;" vertex="1" parent="1">
          <mxGeometry x="425" y="960" width="79.5" height="54" as="geometry" />
        </mxCell>
        <mxCell id="YgZaEbE8Ezpt_k7WW5st-97" value="&lt;span style=&quot;font-style: normal;&quot;&gt;&lt;u&gt;Internet&lt;br&gt;0.0.0.0/0&lt;/u&gt;&lt;/span&gt;" style="text;html=1;whiteSpace=wrap;strokeColor=none;fillColor=none;align=center;verticalAlign=middle;rounded=0;fontStyle=3" vertex="1" parent="1">
          <mxGeometry x="535" y="-50" width="160" height="90" as="geometry" />
        </mxCell>
      </root>
    </mxGraphModel>
  </diagram>
</mxfile>
